/* XPM */
static char *result[] = {
/* columns rows colors chars-per-pixel */
"30 30 59 1 ",
"  c black",
". c #010100",
"X c #000001",
"o c #000101",
"O c #010101",
"+ c #211F14",
"@ c #183828",
"# c #212938",
"$ c #222A39",
"% c #303430",
"& c #570F05",
"* c #580F05",
"= c #573600",
"- c #583601",
"; c #753E2D",
": c #386B29",
"> c #286444",
", c #504C4C",
"< c #44506B",
"1 c #45516B",
"2 c #932400",
"3 c #D23C38",
"4 c #D33C38",
"5 c #93520A",
"6 c #94520A",
"7 c #D37312",
"8 c #D47312",
"9 c #FE645C",
"0 c #FF645C",
"q c #4FA354",
"w c #59897A",
"e c #598A7A",
"r c #FFAB0F",
"t c #D38B52",
"y c #D38C52",
"u c #D48C52",
"i c #707CA2",
"p c #707CA3",
"a c #7C8383",
"s c #74BF8F",
"d c gray58",
"f c #A2AAAE",
"g c #A3ABAF",
"h c #EAB284",
"j c #EBB284",
"k c #EAB285",
"l c #EAB385",
"z c #EBB385",
"x c #FFE091",
"c c #FFD9AD",
"v c #A2AAC6",
"b c #A3ABC7",
"n c #D2D2D2",
"m c LightGray",
"M c #DAE5EA",
"N c #DBE6EB",
"B c #DAE5FE",
"V c #DBE6FF",
"C c None",
/* pixels */
"CCCCCC 68r86==6686=6==CCCCCCCC",
"CCCCC  =6rrr8=688688666=CCCCCC",
"CCC==686==8rr6=668rr8666=CCCCC",
"CC68rxxxx868r8==668866====CCCC",
"C68rr88rxx88r6=66668886=CCCCCC",
"=   =rxxxrrr86868886=685 CCCCC",
"CCC=rxr86xr8r8r8rr886==6= CCCC",
"CC=6r866xr6r86x86rr86=6==CCCCC",
"CC=r868xr6r8=8r7=6rr86=5 CCCCC",
"C=68=68r688 ;8r5 =6r86=== CCCC",
"C=6 68866= ;u=8=; =686= = CCCC",
"CC C686==d  u 6 t  =66=t CCCCC",
"CCCC66=;um  zu=uu On=6-h CCCCC",
"CCCC=  ;um::zzzzz::n=6= CCCCCC",
"CCCC C ;zmqqcccccqqmu= CCCCCCC",
"CCCCCC  uzcccccccccj2442&CCCCC",
"CCCC o>e;ylcccccccl23&222&CCCC",
"CCC >sss>+;yykkkyy;4&22242&CCC",
"CC ;;wse>+@@@@@@@@@3**03&& CCC",
"CC.uy w>@+a>e@ @e>a&99&@>>@CCC",
"C uk$# @ <g<>e@e><g<&& ##e> CC",
"C t#bp<  +fpgp>pgpf+  <pv#> CC",
"CC p<Vb< +%<g<1<g<%+ <bB<i#CCC",
"CC i#bb< af%afMfa%fa <bv#i CCC",
"CCC #ii ##%%%%%%%%%##Xpi# CCCC",
"CCCC    #<a<a<p<a<a<#    CCCCC",
"CCCCCCC #<apgiiigpa<# CCCCCCCC",
"CCCCCCCC #,a,###,a,# CCCCCCCCC",
"CCCCCCCC ,gNg, ,gNg, CCCCCCCCC",
"CCCCCCCCC aaa C aaa CCCCCCCCCC"
};
