/* XPM */
static char *result[] = {
/* columns rows colors chars-per-pixel */
"30 30 49 1 ",
"  c black",
". c #010000",
"X c #010101",
"o c gray8",
"O c #183828",
"+ c #193829",
"@ c #212938",
"# c #303430",
"$ c #313531",
"% c #570F05",
"& c #573600",
"* c #583601",
"= c #753E2D",
"- c #753E2E",
"; c #386B29",
": c #286444",
"> c #504C4C",
", c #514D4D",
"< c #44506B",
"1 c #45516C",
"2 c #932400",
"3 c #94520A",
"4 c #D47312",
"5 c #4FA354",
"6 c #598A7A",
"7 c #FFAB0F",
"8 c #D38B52",
"9 c #D38C52",
"0 c #D48C52",
"q c #707CA2",
"w c #707CA3",
"e c #7C8282",
"r c #7C8383",
"t c #74BF8F",
"y c gray58",
"u c #A2AAAE",
"i c #A3ABAF",
"p c #EAB284",
"a c #EAB385",
"s c #EBB385",
"d c #FFE091",
"f c #FED8AC",
"g c #FFD9AD",
"h c #A2AAC6",
"j c #A3ABC7",
"k c LightGray",
"l c #DAE5EA",
"z c #DBE6FF",
"x c None",
/* pixels */
"xxxxxxxxxx&&&333&&&&33443&xxxx",
"xxxxxxxx&&34777433&37dd7&xxxxx",
"xxxxxx&&444347774&34d74&xxxxxx",
"xxxxx&34477434733&3474&433xxxx",
"xxxx&33333444777433334ddd73&xx",
"xxx&&&3344447774743744777dd3&x",
"xxxx&33443&77447747d7344&&&&xx",
"xxx&33433&4743774&47d4373&xxxx",
"xxx&333&&343&4773 &47d377&xxxx",
"xx&333&&&44&3474&= 37d&473&xxx",
"xx&33o3&343o3443&==&37&374&xxx",
"xx&3o&3&34&o443&y  =&3 &37&xxx",
"xxxoxo3&3&s&43&0k  00&  &4&xxx",
"xxxxxo&3&os&43&sk;;s00 x 3xxxx",
"xxxxxxo33&oo3&0sk55ggg xx&xxxx",
"xxxxxxo&33&o3*sggggggg xx xxxx",
"xxxxxxx &&OO=afgggggg8 xxxxxxx",
"xxxxxxxx ::66:O9fffp8 xxxxxxxx",
"xxxxxxx :OOO:66OO== .xxxxxxxxx",
"xxxxxxx O:6:OOO:6:O%2%xxxxxxxx",
"xxxxxxxxOtt6:Or@@@<O2%xxxxxxxx",
"xxxxxxx :66:O<i<wrw %xxxxxxxxx",
"xxxxxxx ===OX<i<wi<  xxxxxxxxx",
"xxxxxxx =09-j+1<<r< < xxxxxxxx",
"xxxxxxx  0<jwjz@##$ < xxxxxxxx",
"xxxxxxx  =<h<jj@rul  xxxxxxxxx",
"xxxxxxx <  @<qw###< xxxxxxxxxx",
"xxxxxxx <<@   <wwiw xxxxxxxxxx",
"xxxxxxx>@@@<<>eqwiw xxxxxxxxxx",
"xxxxxxx >>>     >r,# xxxxxxxxx"
};
