/* XPM */
static char *result[] = {
/* columns rows colors chars-per-pixel */
"30 30 65 1 ",
"  c black",
". c #010000",
"X c #010100",
"o c #010101",
"O c #211F14",
"+ c #211F15",
"@ c #183828",
"# c #193828",
"$ c #212938",
"% c #212A38",
"& c #303430",
"* c #560F05",
"= c #570F05",
"- c #580F05",
"; c #571006",
": c #573600",
"> c #583601",
", c #753E2D",
"< c #763E2D",
"1 c #386B29",
"2 c #396B2A",
"3 c #286444",
"4 c #504C4C",
"5 c #44506B",
"6 c #932400",
"7 c #D23C38",
"8 c #D33C38",
"9 c #93520A",
"0 c #94520A",
"q c #D37312",
"w c #D47312",
"e c #FE635C",
"r c #FE645C",
"t c #FF645C",
"y c #4FA354",
"u c #50A354",
"i c #588979",
"p c #598A7A",
"a c #FFAB0F",
"s c #D38B52",
"d c #D38C52",
"f c #D48C52",
"g c #707CA2",
"h c #707CA3",
"j c #7C8382",
"k c #7C8383",
"l c #74BF8F",
"z c gray58",
"x c #A2AAAE",
"c c #A3ABAF",
"v c #EAB284",
"b c #EAB385",
"n c #EBB385",
"m c #FFDF90",
"M c #FFE091",
"N c #FED9AD",
"B c #FFD9AD",
"V c #A2AAC6",
"C c #A3ABC7",
"Z c #D2D2D2",
"A c #D3D3D2",
"S c LightGray",
"D c #DBE6EB",
"F c #DBE6FF",
"G c None",
/* pixels */
"GGGGGG 0000::::::0::GGGGGGGGGG",
"GGGGGGG 0waw0::00w0:0::GGGGGGG",
"GGGGG00::0aaaw:0ww0ww000:GGGGG",
"GGG00waw0::waa0:00waaw000:GGGG",
"GG:waaMMMaw0waw::00ww00::::GGG",
"G:::00waMMawwa0:0000www0:GGGGG",
"GGG  :aMMMaaaw0w0www0:0w9 GGGG",
"GGGG:aMawaMawawawaaww0::0: GGG",
"GGG:waw0aMa0aw0mw0aaw0:0::GGGG",
"GG:0w00wMa0aw:waq:0aaw0:9 GGGG",
"GG:0::0wa0ww ,wa9 :0aw0::: GGG",
"GG:: 0ww00: ,f:q:, :0w0: : GGG",
"GGG G0w0::z  f 9Xs  :00:s GGGG",
"GGGGG00:,fS  nf:fs oZ:0>v GGGG",
"GGGGG:  ,fS11nnnnb12Z:0: GGGGG",
"GGGGG G ,nSyyBBBBNyuAd:.GGGGGG",
"GGGGGGG  fnBBBBBBBBBn8866=GGGG",
"GGGGGG 3p,fnBBBBBBBn86=-66=GGG",
"GGGGG3plp3O,ffnnnff<r=6re76=GG",
"GGGG $3p33O@@@@@@@@#8t7==;7*GG",
"GGG ,f,@3@Ok3p@ @p3jO==O3p3 GG",
"GGG 5$$,@ Oc53p@p35xOOOo%3i GG",
"GGG$Chh$  Ochch3hchx+hFCg$3 GG",
"GGG5hCF5G O&5c555c5&+hCV$5$ GG",
"GGG hCC5  kc&kcDck&xO5h5$5 GGG",
"GGG $hh  $$&&&&&&&&&$O$$  GGGG",
"GGGG   G $5k5k5h5k5k5   GGGGGG",
"GGGGGGGG $5khkhhhchk5$ GGGGGGG",
"GGGGGGGGG  $cDc$$444$ GGGGGGGG",
"GGGGGGGGGGG kck 444 GGGGGGGGGG"
};
