/* XPM */
static char *result[] = {
/* columns rows colors chars-per-pixel */
"30 30 50 1 ",
"  c black",
". c #010000",
"X c #010100",
"o c gray8",
"O c #183828",
"+ c #212938",
"@ c #303430",
"# c #570F05",
"$ c #573600",
"% c #573601",
"& c #753E2D",
"* c #386B29",
"= c #396B29",
"- c #286444",
"; c #504C4C",
": c #44506B",
"> c #93520A",
", c #94520A",
"< c #D37312",
"1 c #D47312",
"2 c #4FA354",
"3 c #50A354",
"4 c #598A7A",
"5 c #FEAA0F",
"6 c #FFAB0F",
"7 c #FFAB10",
"8 c #D38B52",
"9 c #D38C52",
"0 c #D48C52",
"q c #707CA2",
"w c #707CA3",
"e c #7C8282",
"r c #7C8383",
"t c #74BF8F",
"y c #939393",
"u c #A3ABAF",
"i c #EBB385",
"p c #FEDF90",
"a c #FFDF90",
"s c #FFE090",
"d c #FFE091",
"f c #FED8AC",
"g c #FFD9AD",
"h c #A3ABC7",
"j c #D2D2D2",
"k c #D2D3D2",
"l c #DAE5EA",
"z c #DBE6EB",
"x c #DAE5FE",
"c c None",
/* pixels */
"ccccccccccc @;r; ccccccccccccc",
"ccccccccccc uzue ccccccccccccc",
"cccccccccc$$$,,,$$$$,,11,$cccc",
"cccccccc$$,16661,,$,7ds5$ccccc",
"cccccc$$111,1666<$,1s6<$cccccc",
"ccccc$,11661,16,,$,16<$1,,cccc",
"cccc$,,,,,1116661,,,,1dds6,$cc",
"ccc$$$,,1111666161,611667da,$c",
"cccc$,,11,$66116617s6,1<$$$$cc",
"ccc$,,1,,$161,66<$17a1,6,$cccc",
"ccc$,,,$$,1,$166> $17a,65$cccc",
"cc$,,,$$$11$,16<$&.,7p$16,$ccc",
"cc$,,o,$,1,o,11,$&&$,5$,6<$ccc",
"cc$,o$,$,1$o11,%y  &$> $,5$ccc",
"cccoco,$,$i$1,$0j X09$  $<$ccc",
"ccccco$,$oi$1,$ik*=i08 c.,cccc",
"cccccco,,$oo,$0ik23ggf cc$cccc",
"cccccco$,,$o,$iggggggf cc cccc",
"ccccccc $$OO&iggggggg8 ccccccc",
"cccccccc --44-O0gggi8 cccccccc",
"ccccccc --OO-44OO&&  ccccccccc",
"ccccccc -O--OOO-4-O-#ccccccccc",
"ccccccccO-t4-Or+++:O#ccccccccc",
"ccccccc -4tt-Ou:wrq #ccccccccc",
"ccccccc -O&-O ++wu: cccccccccc",
"ccccccc O&0:w:hh:r: cccccccccc",
"ccccccc &0i:hwhx@@@ cccccccccc",
"ccccccc  &0+w+wwrul cccccccccc",
"ccccccc :   ::+ @@: cccccccccc",
"ccccccc :r:+   :wuq cccccccccc"
};
