/* XPM */
static char *result[] = {
/* columns rows colors chars-per-pixel */
"30 30 45 1 ",
"  c black",
". c #000100",
"X c #010100",
"o c #211F14",
"O c #183828",
"+ c #193828",
"@ c #212938",
"# c #303430",
"$ c #570F05",
"% c #573600",
"& c #753E2D",
"* c #386B29",
"= c #286444",
"- c #504C4C",
"; c #44506B",
": c #45516C",
"> c #932400",
", c #D33C38",
"< c #94520A",
"1 c #D47312",
"2 c #FF645C",
"3 c #4FA354",
"4 c #50A354",
"5 c #598A7A",
"6 c #FFAB0F",
"7 c #D38C52",
"8 c #D48C52",
"9 c #707CA2",
"0 c #707CA3",
"q c #7C8383",
"w c #74BE8F",
"e c #74BF8F",
"r c gray58",
"t c #A2AAAE",
"y c #A3ABAF",
"u c #EAB285",
"i c #EAB385",
"p c #EBB385",
"a c #FFE091",
"s c #FFD9AD",
"d c #A3ABC7",
"f c LightGray",
"g c #DBE6EB",
"h c #DBE6FF",
"j c None",
/* pixels */
"jjjjjj <<<<%%%%%%<%%jjjjjjjjjj",
"jjjjjjj <161<%%<<1<%<%%jjjjjjj",
"jjjjjj  %<6661%<11<11<<<%jjjjj",
"jjjj%%<1<%%166<%<<1661<<<%jjjj",
"jjj<16aaaa1<161%%<<11<<%%%%jjj",
"jj<166116aa116<%<<<<111<%jjjjj",
"j%   %6aaa6661<1<111<%<1< jjjj",
"jjjj%6a61<a6161616611<%%<% jjj",
"jjj%<61<<a6<61<a1<661<%<%%jjjj",
"jjj%61<1a6<61%161%<661<%< jjjj",
"jj%<1%<16<11 &16< %<61<%%% jjj",
"jj%< <11<<% &8%1%& %<1<% % jjj",
"jjj j<1<%%r  8 < 8  %<<%8 jjjj",
"jjjjj<<%&8f  p8%88  f%<%p jjjj",
"jjjjj%  &8f**ppppp**f%<% jjjjj",
"jjjjj j &pf44sssss33f8% jjjjjj",
"jjjjjjj  8psssssssssp8>,,$jjjj",
"jjjjjj.==&7isssssssp8>,>>>$jjj",
"jjjjj.5e5=o&77upp88&&,$>>$,$jj",
"jjjjX5we5=oOOOOOOOOO$,$$,,$ jj",
"jjj 8+O=5=oq=5O O5=q$>22$$=Ojj",
"jjj&p70;: ;y;=5O5=;yo$$ @@5= j",
"jjj 7;;dh;ot0y0=0y0yo  @;;@= j",
"jjj @0;dd;o#;y;;;y;#o  ;dh;@jj",
"jjjj 9@09;qt#qtgyq#yq j;dd; jj",
"jjjjj ;;@@@#########@@  00@ jj",
"jjjjjj    ;q;q;0;q;q;@ j   jjj",
"jjjjjjjj @;q0y900q0q;@ jjjjjjj",
"jjjjjjjjj @---@@ygy@  jjjjjjjj",
"jjjjjjjjjjj --- qyq jjjjjjjjjj"
};
