/* XPM */
static char *result[] = {
/* columns rows colors chars-per-pixel */
"30 30 29 1 ",
"  c black",
". c #010000",
"X c #183828",
"o c #212938",
"O c #222938",
"+ c #303430",
"@ c #570F05",
"# c #573600",
"$ c #286444",
"% c #504C4C",
"& c #44506B",
"* c #932400",
"= c #D33C38",
"- c #93520A",
"; c #94520A",
": c #D37312",
"> c #D47312",
", c #598A7A",
"< c #FFAB0F",
"1 c #D48C52",
"2 c #707CA2",
"3 c #707CA3",
"4 c #7C8383",
"5 c #74BF8F",
"6 c #A3ABAF",
"7 c #FFE091",
"8 c #FED8AC",
"9 c #DBE6EB",
"0 c None",
/* pixels */
"0000000000##;######;;;- 000000",
"0000000;;;#;>;;##;><>- 0000000",
"00000;;><<>;>>;#><<<;#  000000",
"0000;><77<<>;;#;<<:##;>;##0000",
"000####;;>>;;##><>;>>>>>>>;000",
"00000#;>><<<>;#;<>><<<>>>>>;00",
"0000 ;><77<>>>>;><<<<<<:#   #0",
"000 #;<<<>><<<>><><<>><>:#0000",
"0000#><>;><<<<<;><;<<>;>>;#000",
"0000 >#;><<>77<>;><;<<>;>:#000",
"000 ##;;><><77<>>>>;;<>;#>;#00",
"000 #;;;>;><<<<;>>>;;;>>-.;#00",
"0000 ;;;;#><<<>#;>>;##;>;0 000",
"0000 ;#;#;;<<<;#;>>;;##;;00000",
"0000 ###;;#><>#;#>;#;#  #00000",
"00000 ##;;#><;#;#;##;# 0 00000",
"00000***@;#;>######### 0000000",
"0000*@@@*@#;#######$X$$ 000000",
"0000===*@*@X,,,,,X$$$,,$ 00000",
"0000@@*=*=@,$XXX$,,$o,,,$00000",
"000 $,$@==@$,555,$oXo$,$$ 0000",
"000 $,oo@@4XXoooXX4&ooO18 0000",
"000 3oo& 36&4&&&4&62 &oo2 0000",
"000 &3&o &436333634& o&3& 0000",
"0000ooo  %%+46964+%%  oo 00000",
"00000  0 +4%+++++%4+ 0  000000",
"00000000 3634&&&4362 000000000",
"00000000 &636333636& 000000000",
"00000000 +%+%+ +%+%+ 000000000",
"00000000 %464% %464% 000000000"
};
