/* XPM */
static char *result[] = {
/* columns rows colors chars-per-pixel */
"30 30 23 1 ",
"  c black",
". c #183828",
"X c #212938",
"o c #303430",
"O c #570F05",
"+ c #573600",
"@ c #286444",
"# c #504C4C",
"$ c #44506B",
"% c #932400",
"& c #D33C38",
"* c #94520A",
"= c #D47312",
"- c #598A7A",
"; c #FFAB0F",
": c #D48C52",
"> c #707CA3",
", c #7C8383",
"< c #74BF8F",
"1 c #A3ABAF",
"2 c #FFE091",
"3 c #DBE6EB",
"4 c None",
/* pixels */
"4444444444++*++++++**** 444444",
"4444444***+*=**++*=;=* 4444444",
"44444**=;;=*==*+=;;;*+  444444",
"4444*=;22;;=**+*;;=++*=*++4444",
"444++++**==**++=;=*=======*444",
"44444+*==;;;=*+*;==;;;=====*44",
"4444 *=;22;====*=;;;;;;=+   +4",
"444 +*;;;==;;;==;=;;==;==+4444",
"4444+=;=*=;;;;;*=;*;;=*==*+444",
"4444 =+*=;;=22;=*=;*;;=*==+444",
"444 ++**=;=;22;====**;=*+=*+44",
"444 +***=*=;;;;*===***==* *+44",
"4444 ****+=;;;=+*==*++*=*4 444",
"4444 *+*+**;;;*+*==**++**44444",
"4444 +++**+=;=+*+=*+*+  +44444",
"44444 ++**+=;*+*+*++*+ 4 44444",
"444444%%OO+*=+++++++++ 4444444",
"44444OOO%%O*+++++++@.@@ 444444",
"4444%&&%OO%O-----.@@@-@ 444444",
"4444OOO&&%%O@...@--@X--@ 44444",
"4444 @@OO&%O-<<<-@X.X@@@ 44444",
"4444 $--XOO..XXX..,$X$:: 44444",
"4444 >$$X>1$,$$$,$1> $$$ 44444",
"4444 $>>X$,>1>>>1>,$ X$X 44444",
"4444 X$X ##o,131,o##    444444",
"44444    o,#ooooo#,o 444444444",
"44444444 >1>,$$$,>1> 444444444",
"44444444 $1>1>>>1>1$ 444444444",
"4444444444 #o#####  4444444444",
"4444444444 oo ,1, 444444444444"
};
