/* XPM */
static char *_0c3a0d41d3f41f8820c57552bf18555UKbtU5U5XZHKmZSH[] = {
/* columns rows colors chars-per-pixel */
"30 30 16 1 ",
"  c None",
". c #352020",
"X c #6C1A04",
"o c #4F2633",
"O c #502734",
"+ c #5A3240",
"@ c #7C635C",
"# c #813A3D",
"$ c #AA3636",
"% c #AB3636",
"& c #A87E6E",
"* c #A97E6E",
"= c #BC6B70",
"- c #F97455",
"; c #DBCFBF",
": c #DCD0C0",
/* pixels */
"                              ",
"                              ",
"                              ",
"      oooooo......++++        ",
"      oooooo......++++        ",
"      oo@@..XX..++%%%%++      ",
"      oo@@..XX..++%%%%++      ",
"        ooXX--XX....++%%..    ",
"        ooXX--XX....++%%..    ",
"        ..........  ..##..    ",
"        ..........  ..##..    ",
"        ..**::@@..  ..##..    ",
"        ..**::@@..  ..##..    ",
"      oo%%====%%##....++..    ",
"      oo%%====%%##....++..    ",
"      oo========##..  ....    ",
"      oo========##..  ....    ",
"      oo++####++++..          ",
"      oo++####++++..          ",
"      oo%%====%%##..          ",
"      oo%%====%%##..          ",
"        ..oooooo..            ",
"        ..ooOOoo..            ",
"        ..**::@@..            ",
"        ..*&;;@@..            ",
"          ......              ",
"          ......              ",
"                              ",
"                              ",
"                              "
};
