/* XPM */
static char *_68818d74a374d31f524d022e1181301Nvt3owg8hRa7y77G[] = {
/* columns rows colors chars-per-pixel */
"30 30 7 1 ",
"  c None",
". c black",
"X c #010101",
"o c #3A313A",
"O c #5D5252",
"+ c #5E5252",
"@ c #7E7068",
/* pixels */
"          +@@@@@@@@+          ",
"          +@@@@@@@@+          ",
"    +@@+  +@@@@@@@@+  +@@+    ",
"   +@@@@@+o+@@@@@@+o+@@@@@+   ",
"  +@@@@@@@+o+@@@@+o+@@@@@@@+  ",
"  +@@@@@@@+o++++++o+@@@@@@@+  ",
"  ++@@@@@@++o++++o++@@@@@@++  ",
"   +++@@@+++......+++@@@+++   ",
"    o++++++ooo..ooo++++++o    ",
"    ooo+++o.oo..oo.o+++ooo    ",
"  +@@@@+....oo..oo....+@@@@+  ",
" +@@@@@@+...oo..oo...+@@@@@@+ ",
" +@@@@@@+.ooo++++ooo.+@@@@@@+ ",
" +@@@@@@+.oooooooooo.+@@@@@@+ ",
" ++@@@@++...oo..oo...++@@@@++ ",
"  ++++++o...oo..oo...o++++++  ",
" oooooo.....oo..oo.....ooooo  ",
"+@@@@@+o.ooo++++++ooo.o+@@@@@+",
"@@@@@@@+.oooooooooooo.+@@@@@@@",
"@@@@@@@+....oo..oo....+@@@@@@@",
"+@@@@@++....oo..oo....++@@@@@+",
"+++++++o....oo..oo....o+++++++",
" oooooo..ooo++++++ooo..oooooo ",
" +@@@@+o.oooooooooooo.o+@@@@+ ",
"+@@@@@@+....oo..oo....+@@@@@@+",
"+@@@@@@+...oooooooo...+@@@@@@+",
"+++++++o.o++ooo+ooo+o.o+++++++",
" +++++o.++@@oo+@oo+@++.o+++++ ",
"    ooo++@@@@@@@@@@@@++oooo   ",
"       ++++++++++++++++       "
};
