/* XPM */
static char *f9f259e65a194ca192526c190bc92c74Z9rvqemgKUyQ4zK3[] = {
/* columns rows colors chars-per-pixel */
"60 60 147 2 ",
"   c #234E00",
".  c #245200",
"X  c #2B5500",
"o  c #2D5B00",
"O  c #325D00",
"+  c #2D6100",
"@  c #356300",
"#  c #3A6500",
"$  c #366800",
"%  c #3C6B00",
"&  c #3F6808",
"*  c #3E7100",
"=  c #416D01",
"-  c #436D0B",
";  c #447302",
":  c #497603",
">  c #457803",
",  c #4B7A04",
"<  c #46730A",
"1  c #4A760B",
"2  c #477A09",
"3  c #4D7B0B",
"4  c #517F05",
"5  c #517E0D",
"6  c #477010",
"7  c #4B7512",
"8  c #4E7C11",
"9  c #527E13",
"0  c #537E19",
"q  c #4E8007",
"w  c #4E800C",
"e  c #548306",
"r  c #588705",
"t  c #598806",
"y  c #53820D",
"u  c #59860C",
"i  c #5B8A0C",
"p  c #4F8111",
"a  c #548313",
"s  c #598614",
"d  c #568914",
"f  c #5B8A14",
"g  c #56841A",
"h  c #5A851A",
"j  c #5E8818",
"k  c #5D891A",
"l  c #5F8B1A",
"z  c #5E8A1B",
"x  c #5C8819",
"c  c #5C8D1A",
"v  c #5D881D",
"b  c #5F8B1C",
"n  c #5C8C1C",
"m  c #5C8B1B",
"M  c #5E911A",
"N  c #5F901B",
"B  c #5E911B",
"V  c #5E901D",
"C  c #5E911B",
"Z  c #608F0D",
"A  c #608E11",
"S  c #608B17",
"D  c #618C16",
"F  c #618E16",
"G  c #618E19",
"H  c #618D1A",
"J  c #608C1B",
"K  c #608B1F",
"L  c #638F1C",
"P  c #618D1E",
"I  c #638F1E",
"U  c #618E1C",
"Y  c #629016",
"T  c #639117",
"R  c #63931B",
"E  c #66911B",
"W  c #65921B",
"Q  c #61901C",
"!  c #63921E",
"~  c #64901D",
"^  c #65911E",
"/  c #67921E",
"(  c #63941F",
")  c #62951F",
"_  c #64941E",
"`  c #67941F",
"'  c #63921C",
"]  c #68931F",
"[  c #68951E",
"{  c #6C9B1B",
"}  c #6E9C1F",
"|  c #6B991D",
" . c #5C8622",
".. c #5E8A21",
"X. c #5E9223",
"o. c #608B22",
"O. c #618C20",
"+. c #638F20",
"@. c #628D22",
"#. c #609221",
"$. c #649021",
"%. c #669521",
"&. c #669721",
"*. c #679721",
"=. c #659724",
"-. c #679624",
";. c #649323",
":. c #689423",
">. c #689723",
",. c #6A9623",
"<. c #699524",
"1. c #689425",
"2. c #6A9625",
"3. c #689523",
"4. c #659821",
"5. c #639824",
"6. c #679824",
"7. c #6B9A24",
"8. c #67922B",
"9. c #6A962A",
"0. c #679928",
"q. c #6D992A",
"w. c #6F9B2C",
"e. c #6F9A2E",
"r. c #6B9D2C",
"t. c #699E2C",
"y. c #6D9B2B",
"u. c #719D2A",
"i. c #739F2E",
"p. c #719E2D",
"a. c #689133",
"s. c #6D9934",
"d. c #719E32",
"f. c #73A222",
"g. c #70A028",
"h. c #72A12D",
"j. c #72A12F",
"k. c #73A22E",
"l. c #73A12D",
"z. c #7AA82C",
"x. c #71A030",
"c. c #75A432",
"v. c #7AA637",
"b. c #7AA735",
"n. c #7DAB33",
"m. c #7EAA39",
"M. c #7EAC3A",
/* pixels */
"# 1 . v , u , , , , , : : s <.i.@ a 2 % + > $ > ; . x s v +.9 o # 1   v , u , , , , , : : s <.x.@ a 2 % + > $ ; : . f s ",
"@ 1 1 e.= f } { i e 5 s 5 <.: s ; % ; #.a d ; d : ; = z % a 9 . @ 1 1 e.= f } { i e 5 s 5 <.1 s ; % ; #.a a ; d ; : % c ",
"s 3 = @ ; u u } A Y # s I u.9 # % n 2 % 2 * f * %.% ^ ^ : 5 @ @ x 3 = @ ; u u } A Y # s I u.9 # % c 2 % 2 ; f % -.% ^ W ",
":.5 3 = y ; : e i W ; I ^ f = % 3 a p 2 $ 5.) 4.%.Q u D , ; = x <.5 3 = y ; : e t W ; I ^ f = # 3 a y 2 $ -.) %.:.( s S ",
"G z : 1 : , G , s ^ m.v.s # a s @ % * B d y % B _ g.; ; y G 9 3 G z : 1 : , G , s ^ m.v.s # a s @ % * V f a % B ( k.; ; ",
"3 q.+.x = ; s e.I = @ z # a ; , x 3 % , w d 2 2 % k.3 s I z 5 $.3 q.+.x = ; s e.I = @ z # a ; , d w % , w d 2 2 * k.3 x ",
"x e.z 5 ; = g o.1 ; @ ; a % :.5 ; @ $ * r.3 3 * 3 ; 1 . % # = K x e.z 5 ; = g o.1 ; @ ; a % :.y ; $ $ * r.3 3 * 3 ; 3   ",
"# < v 9 % 8.X & 8 ; 3 z ; , % 3 y c a #.o 2 3 $ o ; O v @.9 1 1 # < v 9 % 8.X % 3 ; 3 z ; 1 % , y c p X.+ 2 3 $ o ; @ v ",
"# - % X O 7 O - 3 z : : [ y y % %.( c ; a a ; a @ 1 9 1 v x O X # - % X O 7 o - 3 z : : _ y y % 4.( v ; a a ; d @ < 9 1 ",
"@ @ 3 a v - O 7 9 x = = | 7.s f f r.$ w 6.x 6.a g 8.; 9 @ 9.g < @ @ 3 a o.- O 7 9 s = = | 7.s f f r.@ 8 0.x 6.a a 8.; a ",
"; 4 Y u ; a X - 9 1 = 5 4 7.y , w.w d a ; 5.; 8 o < 8 3 1 # 3 f ; 4 W u ; 9 X < 9 1 = 5 4 7.y , i.w a a ; 5.; 8 o < 3 1 ",
"e { t t Y % x 9 = s = ; Q : s : @ 3 % ; w > < . % @ < % # G ; 4 e { r t W % x 9 = s = ; Q : s : @ 3 % ; y : < . % O ; = ",
": e i f.i y 5 : 3 Q f | , % @ o @ O % 2 ; d @ : @ a : x 5 = s z.: e Z f.i 5 5 : 3 Q f | , % @ o @ O $ , > d @ > @ a < x ",
"e i t , e n.:.= k., f f 7.3 3 8 o % v % #.c , 3 c y ; % @ f ; ; u i t , e n.:.% k., f f 7.3 3 8 o % x % ( c 2 3 c y : % ",
"; [ u f , f G % 9 3 # e.a f y y 3 3 . 7 < o ; ) 3 ; ; d , y ; s ; | i f , i G % 9 3 # e.a f y a 3 8 . 7 < o ; ;.y ; ; s ",
"5 D ; D i , = 5 # # X - ; ; = , ( w . s.g @ $ c Q 7.; d y ; 5 k.5 G ; D u , = 5 # # X - ; ; = 2 ( y . r.a @ $ c Q 7.: u ",
"y G 3 a 5 , # q.a 1 #   % a % x c % : n c Q Q c , y c c ; ( d d y G 3 a 5 , # q.a 3 @   = y % f z # : c c Q ( c , y d c ",
"s 5 @ 1 5 % : I 1.@.# # % z : x : ; s ; d d %.c y ; d , ; 3 x x s 3 @ : y % ; I 1.8.# # % z : f : ; s : d d %.c y ; y , ",
"# x ; 5 O = = 9 @ 0 9 x v 3 % ; ; I , 2 3 , y ; ..3 d , c y 2 % # x ; 5 O ; = a @ 0 8 v v 8 % ; ; I 2 2 3 3 a ; n 5 d , ",
"; 3 % 5 : @.3 9 O < e.x 9.9 < : % n % 2 @ 5 z % @ % ( _ r.5 9 % = 3 # 5 ; +.3 9 O < e.g 9.9 < ; = n % 2 @ 5 z % @ % ( _ ",
"s : ; 5 G a ..X x 9 v # @ ; < 1 ; % g 9 @ % = % ; d , ; d w.v . s : : 3 G a v o x 9 v # @ ; < 1 ; % g a @ % ; % ; y , ; ",
":.s s ; = a # # % , 9.# < % - . % % g o a 3 % % d y ; y x 0.v . :.s s ; = a # # % , 9.# : % = . % % g o a 3 % % d y ; y ",
"s $.e.5 z a 3 : y i ; , 3 ; 3 x x.v @ % 3 3 % <.c.y y 2 % % a ; d %.q.a z a 1 ; y i ; , 3 ; 5 x k.n @ % 3 3 % <.c.y y 2 ",
"@ i.v = ; = % G D W , , , , 3 w <.% < 8 #.c d 3 s d ; ; 3 a ( ; @ i.+.= ; = # G D W , , , , 3 5 6.% < 8 #.c d 3 s d ; ; ",
": c.= < v # : ; f ^ u 7.; 3 a 0.n % s.@ > , 7., = f s ; @ ; z ; : c.= < o.# : : f ^ u 7.; 3 y 0.n % d.# : , 7., = s d ; ",
"a 9.- o @ +.% 5 % : b.y ( ; y M.: : 8 o % M.; y , ; y # ; a = ; a -.= O @ +.% 3 % : b.y ( ; a M.: : 8 o % M.; y ; ; a % ",
"3 O # O g g 1 # ; : z 5 r.; d ; @ ; % % d y d % r.#.o 2 %     v 3 O # O v a 1 # ; : z 5 r.; a ; @ ; % % f y d % r.#.o 2 ",
"- # < 7 < O = 9 # = s % a a x @ s s d , q ; y 7.@ @ %.3 x g 0 g - # < 8 < O = 9 # = x # a a x @ a s a , 3 ; y 7.+ @ 7.3 ",
"6  .# s.<   -.x X = = ; O g @ 1 : ( %.c , 3 ; 2 #.y y u.5 s d.% 6  .# s.-   -.x X % % ; O g # 1 : #.-.c > , ; , %.y y u.",
"a.- - # < % z I q.% ..X o ..< < 2 3 c.a d w.; 2 % 7.( r.G <.v % a.< & @ < % x ( 0.% ..o o ..1 < 3 3 c.a d r.; , % 7.( r.",
"& - 8...8 x : f 7.f % X 6 - - 0 % 3 p % ; % % 2 3 ; c.a 3 @ # 0 - - 8...3 x , f 7.f & . 6 - - 0 # 3 p $ * * % 2 3 ; c.y ",
"- 7 X % 5 c % ; u c @ O 9 o   g % a a x @ ; % n @ . 9 = # 9 O & - 7 X # 5 f % ; u c @ O 9 o   g % a a x $ ; % n @ . 5 ; ",
"# 7 . v , u 4 , , , , : 1 x 9.d.@ a 2 % + > $ : ; . x s v +.9 o # 7 . v , u , , , , 3 : 1 x 9.d.@ a 2 % + > $ ; : . f d ",
"O 1 < e.= f } { i e 5 s 5 <.1 s ; % ; #.a a ; d : ; = z % a 9 . @ 1 1 e.= f } { i e 5 s 5 <.1 s ; % ; #.a a ; d ; : % c ",
"s 3 = # ; u u } A Y # s I u.9 # % n 2 % 2 * d * %.% ] ^ : 5 @ @ x 3 = @ ; u u } A Y # s I u.9 # % c 2 $ 2 ; f % -.% _ W ",
"$.5 1 = y ; : u t W ; I ^ f = % 3 a p 2 $ 5.) 4.%.Q u D , ; = x <.9 3 = y ; : e t W ; I ^ f = # 3 a w 2 @ -.) %.%.( s S ",
"I s : 3 : , Q , s ^ m.v.s # a s @ $ * B d y % B ) g.; ; y G 9 3 G z : 1 : , G , s ^ m.v.s # a s @ $ * V f a % B ( k.; ; ",
"3 q.+.s = ; a e.I = @ z # a ; , x 3 % , w d 2 2 % k.3 s I z 5 $.3 q.+.x = ; s e.I = @ z # a ; , d 3 $ , w d 2 2 * k.3 x ",
"x q.z 5 ; = g o.1 ; @ ; a % :.5 ; @ $ * r.3 3 * 3 ; 1 . % # = K x e.z 5 ; = g o.1 ; @ ; a % :.y ; $ $ * r.3 3 * 3 ; 3   ",
"# < v 9 # 8.X & 8 ; 3 z ; , % 3 y c a #.+ 3 3 $ o ; O v @.9 1 1 # < v 9 % 8.X & 8 ; 3 z ; , % , y c a X.+ 2 3 $ o ; @ v ",
"# - % X O 7 o - 3 x : : [ y y % %.( c ; a a ; a @ 1 9 1 v x O X # - % X O 7 o - 3 x : : [ y y % 4.( v ; a a ; d @ 1 9 1 ",
"@ @ 3 a o.- O 7 9 x = = | 7.s f f r.$ 3 6.x 6.a g 8.; 9 @ 9.g < @ @ 3 a o.- O 7 9 x = = | 7.s f f r.@ 8 0.x 6.a a #.; a ",
"; 4 W u ; 9 X < 9 1 = 5 4 7.y , k.w d a ; -.; 8 o < 8 3 1 # , f ; 4 W u ; 9 X < 9 1 = 5 4 7.y , k.w a a ; -.; p o < 3 1 ",
"e { r u W % x 9 = s = ; Q : s : @ 3 % ; y : < . % @ < % # G ; 4 e { r u W % x 9 = s = ; Q : s : @ 3 % ; y : < . % O ; = ",
": e Z f.i 5 5 : 3 Q f | , % @ o @ O % 2 > d @ : @ a : x 5 = s z.: e Z f.i 5 5 : 3 Q f | , % @ o @ O % , > d @ > @ a < x ",
"t i t , e n.:.% k., f f 7.3 3 8 o % v % #.c , 3 c y : % @ f ; ; u i t , e n.:.% k., f f 7.3 3 8 o % x % ( c 2 3 c y : % ",
"; | i f , i G % 9 3 # e.a f y y 3 3 . 7 < o ; ) 3 ; ; d , y ; s ; | i f , i G % 9 3 # e.a f y a 3 8 . 7 < o ; ;.y ; ; s ",
"5 G ; D u , = 5 # # X - ; ; = 2 ( w . s.g @ $ c Q 7.; y y ; 5 k.5 G ; D u , = 5 # # X - ; ; = 2 ( 5 . r.a @ $ c Q 7.: s ",
"y G , a 5 , # q.a 1 @   = y % f n % : n n G Q c , y c c ; ( y y y G , a 5 , # q.a 1 @   = y % f c % ; c c G ( c , y d c ",
"s 3 @ : y % ; I 1.@.# % % z : x : ; s ; a s _ c y ; y , ; 3 s z s 3 @ : y % ; I 1.@.# % % z : f : ; s ; d s %.c y ; d , ",
"# x ; 5 O ; = a @ 0 8 v v 8 % ; ; I 2 2 3 3 a ; n 3 s , c y 3 = # x ; 5 O ; = a @ 0 8 v v 8 % ; = +.2 2 3 3 a ; n 5 d , ",
"= 3 # 5 : @.8 9 O < e.g 9.9 < ; % n % 2 @ 5 v % @ % ( %.r.5 9 = = 3 # 5 : @.8 9 O < e.g 9.9 < ; % ..% 3 @ 9 z % @ % ( %.",
"s : : 3 I a  .X x 5 v # @ ; < 1 ; % g 9 @ % = % ; y , ; d w. .. g : : 3 I a  .X x 5 v # @ ; < 1 ; % g 9 @ % ; % ; y , ; ",
":.s s ; = a # # % , 7.% : % - . % % g o a 3 % % d y ; y f 0.v . <.s s ; = a # # % , 7.% : % - . % % g o a 8 % % d y ; y ",
"a :.q.y z a 1 ; y d ; , 3 ; 5 x x.n @ % 3 3 % <.c.y 5 3 % % a ; a :.q.y z a 1 ; y d ; , 3 ; 5 x k.n @ % 3 3 % :.c.y y 2 ",
"@ i.I = ; = # I D W , , , , 3 5 6.% < 8 #.c d 3 d d ; ; 3 a I = @ i.I = ; = # I D W , , , , 3 5 6.% : 8 #.c d 3 d d ; ; ",
": c.= : +.# : : d W u 7.= 3 a 7.n @ d.# : , 7., * f d ; @ ; x ; : c.= : +.# : : d W u 7.= 3 a 0.n @ d.# ; , 7., * d d ; ",
"a 9.; o @ @.% 3 % : n.y #.; y M.: : 9 o % M.; y > ; y % ; a ; ; a 9.; o @ @.% 3 % : n.y #.; y M.: : 9 o % M.; y > ; y % ",
"8 O # O g 9 1 # ; : z 5 q.; d ; @ ; @ % d y d % r.-.o 2 %   . v 8 O # O g 9 1 # ; : z 5 q.; d ; @ ; @ % f y d % w.#.o , ",
"- # 6 7 < O = 9 # ; x % d d s @ g g s , e ; y 7.@ @ 6.3 x g 9 g - # 6 7 < O = 9 # ; x % d d s @ d d s , y ; y 7.@ @ 0.3 "
};
