/* XPM */
static char *result[] = {
/* columns rows colors chars-per-pixel */
"30 30 44 1 ",
"  c black",
". c gray8",
"X c #183828",
"o c #183928",
"O c #212938",
"+ c #303430",
"@ c #570F05",
"# c #573600",
"$ c #583601",
"% c #753E2D",
"& c #386B29",
"* c #286444",
"= c #504C4C",
"- c #44506B",
"; c #932400",
": c #D23C38",
"> c #D33C38",
", c #93520A",
"< c #94520A",
"1 c #D37312",
"2 c #D47312",
"3 c #FF645C",
"4 c #4FA354",
"5 c #59897A",
"6 c #598A7A",
"7 c #FEAA0F",
"8 c #FFAB0F",
"9 c #D38C52",
"0 c #D48C52",
"q c #707CA2",
"w c #707CA3",
"e c #7C8383",
"r c #74BF8F",
"t c gray58",
"y c #A3ABAF",
"u c #EAB284",
"i c #EBB385",
"p c #FFE091",
"a c #FED8AC",
"s c #FFD9AD",
"d c #A3ABC7",
"f c LightGray",
"g c #DBE6FF",
"h c None",
/* pixels */
"hhhh#<22<<####<<<###hhhhhhhhhh",
"hhhhh#8pp8<#<<28882<##hhhhhhhh",
"hhhh<<#28p2<#28882<221##hhhhhh",
"hh#<222#282<#<<82<28822<#hhhhh",
"h#28ppp82<<<<2888222<<<<<#hhhh",
"hh##<288228<2828882222<<###hhh",
"hhhh##22<8p82882287#<22<<#hhhh",
"hhhh#<8<2p82#288<281#<<2<<#hhh",
"hhhh#88<p82# <881#<2<##<<<#hhh",
"hhh#<82#p8< %#282<#21###<<<#hh",
"hhh#28<#8<#%%#<22,.<2<#,.<<#hh",
"hhh#8<# <#%  t#<21.#2<#<#.<#hh",
"hhh#2#  #00  f0#<1$u#<#,.h.hhh",
"hhhh< h 00i&&fi#<1$u.#<#.hhhhh",
"hhhh#hh sss44fi9#,..#<,.hhhhhh",
"hhhh hh sssssssu#,.#<<#.hhhhhh",
"hhhhhhh 0ssssssa@@@@##.hhhhhhh",
"hhhhhhhh 0iss0@>>>>;;@hhhhhhhh",
"hhhhhhhhh  %%@>@@;;;;;@hhhhhhh",
"hhhhhhhhhh*X*@3@;>>:@;@hhhhhhh",
"hhhhhhhhhhX-O@>3:@*@>;@hhhhhhh",
"hhhhhhhhhh wew@@@6r5@@hhhhhhhh",
"hhhhhhhhhh -OOO orr6* hhhhhhhh",
"hhhhhhhhhh Odd-w-r6*   hhhhhhh",
"hhhhhhhhhh Ogdwd-6* XX hhhhhhh",
"hhhhhhhhhh OwwOqO* X-X hhhhhhh",
"hhhhhhhhhh - O--  -ww- hhhhhhh",
"hhhhhhhhhh wy   O-wwwq hhhhhhh",
"hhhhhhhhhh wywwy=w=yy= hhhhhhh",
"hhhhhhhhh ===     +=e= hhhhhhh"
};
