/* XPM */
static char *result[] = {
/* columns rows colors chars-per-pixel */
"30 30 34 1 ",
"  c black",
". c #010000",
"X c #183828",
"o c #212938",
"O c #222A38",
"+ c #303430",
"@ c #570F05",
"# c #573600",
"$ c #286444",
"% c #504C4C",
"& c #434F6A",
"* c #44506A",
"= c #44506B",
"- c #932400",
"; c #D33C38",
": c #93520A",
"> c #94520A",
", c #D37312",
"< c #D47312",
"1 c #59897A",
"2 c #598A7A",
"3 c #FFAB0F",
"4 c #6F7BA2",
"5 c #707CA2",
"6 c #707CA3",
"7 c #7C8383",
"8 c #74BF8F",
"9 c #A2AAAE",
"0 c #A3ABAF",
"q c #EAB385",
"w c #FFE091",
"e c #FFD9AD",
"r c #DBE6EB",
"t c None",
/* pixels */
"tttttttttt##>######>>>: tttttt",
"ttttttt>>>#><>>##><3<: ttttttt",
"ttttt>><33<><<>#<333>####ttttt",
"tttt><3ww33<>>#>33,#><<<>>>ttt",
"ttt####>><<>>##<3<><33<<<<<>tt",
"ttttt#><<333<>#>3<<33333<># #t",
"tttt ><3ww3<<<<><333333,#  ttt",
"ttt #>333<<333<<3<33<<<<,#tttt",
"tttt#<3<><33333><3>33<><<>#ttt",
"tttt <#><33<ww3<><3>33<><,#ttt",
"ttt ##>><3<3ww3<<<<>>3<>#<>#tt",
"ttt #>>><><3333><<<>>><<:.>#tt",
"tttt >>>>#<333<#><<>##><>t ttt",
"tttt >#>#>>333>#><<>>##>>ttttt",
"tttt  ##>>#<3<#>#<>#>#  #ttttt",
"ttttt--@>>#<3>#>#>##># t ttttt",
"tttt-@@-@>#><######### ttttttt",
"tttt-;-@-@#>#######$X$$ tttttt",
"tttt@@;-@;@X22222X$$$21 tttttt",
"tttt $@;;-22$XXX$22X2221 ttttt",
"tttt $2$@@o$28882$oX2$$$ ttttt",
"tttt X$=o=7XXoooXX7=Oeq= ttttt",
"tttt === 60=7===7=05o==4 ttttt",
"tttt o=o =760666067=o65* ttttt",
"ttttt o  %%+70r07+%% o*o ttttt",
"tttttttt +7%+++++%7+    tttttt",
"tttttttt 6067===7604 ttttttttt",
"tttttttt =060666069& ttttttttt",
"ttttttttt  %%%%%+% ttttttttttt",
"ttttttttttt 707 ++ ttttttttttt"
};
