/* XPM */
static char *result[] = {
/* columns rows colors chars-per-pixel */
"30 30 34 1 ",
"  c black",
". c gray8",
"X c #183828",
"o c #212938",
"O c #303430",
"+ c #570F05",
"@ c #573600",
"# c #753E2D",
"$ c #386B29",
"% c #286444",
"& c #504C4C",
"* c #44506B",
"= c #932400",
"- c #D33C38",
"; c #94520A",
": c #D47312",
"> c #FF645C",
", c #4FA354",
"< c #598A7A",
"1 c #FFAB0F",
"2 c #D48C52",
"3 c #707CA3",
"4 c #7C8383",
"5 c #74BF8F",
"6 c gray58",
"7 c #A3ABAF",
"8 c #EBB385",
"9 c #FFE091",
"0 c #FFD9AD",
"q c #A3ABC7",
"w c LightGray",
"e c #DBE6EB",
"r c #DBE6FF",
"t c None",
/* pixels */
"tttt@;::;;@@@@;;;@@@tttttttttt",
"ttttt@1991;@;;:111:;@@tttttttt",
"tttttt@:19:;@:111:;:::@@tttttt",
"tttt;;:@:1:;@;;1:;:11::;@ttttt",
"tt@;1999:;;;;:111:::;;;;;@tttt",
"t@;99111::1;:1:111::::;;@@@ttt",
"tt@@@@::;191:11::11@;::;;@tttt",
"tttt@;1;:91:@:11;:1:@;;:;;@ttt",
"tttt@11;91:@ ;11:@;:;@@;;;@ttt",
"ttt@;1:@91; #@:1:;@::@@@;;;@tt",
"ttt@:1;@1;@##@;::;.;:;@;.;;@tt",
"ttt@1;@ ;@#  6@;::.@:;@;@.;@tt",
"ttt@:@  @22  w2@;:@8@;@;.t.ttt",
"tttt; t 228$$w8@;:@8.@;@.ttttt",
"tttt@tt 000,,w82@;..@;;.tttttt",
"tttt tt 00000008@;.@;;@.tttttt",
"ttttttt 200000008++++@.ttttttt",
"tttttttt 280002+=----+tttttttt",
"ttttttttt  ##X+=-++===+ttttttt",
"tttttttttt%X%<+>+=---=+ttttttt",
"ttttttttttX*ooo->>=++-+ttttttt",
"tttttttttt 343*+++%5<% ttttttt",
"tttttttttt *73oo X%%<< ttttttt",
"tttttttttt *4*qq*3*<5< ttttttt",
"tttttttttt OOOrq3q*<<% ttttttt",
"tttttttttt e7433o3o%%  ttttttt",
"tttttttttt *OO o**   * ttttttt",
"tttttttttt 373*   o*4* ttttttt",
"tttttttttt 37334&***4o ttttttt",
"ttttttttttt  O4e77&   tttttttt"
};
