/* XPM */
static char *result[] = {
/* columns rows colors chars-per-pixel */
"30 30 51 1 ",
"  c black",
". c #010000",
"X c #010100",
"o c #010101",
"O c gray8",
"+ c #183828",
"@ c #212938",
"# c #303430",
"$ c #573600",
"% c #573601",
"& c #753E2D",
"* c #386B29",
"= c #396B29",
"- c #286444",
"; c #4F4B4B",
": c #504C4C",
"> c #44506B",
", c #93520A",
"< c #94520A",
"1 c #D37312",
"2 c #D47312",
"3 c #4FA354",
"4 c #50A354",
"5 c #598A7A",
"6 c #FEAA0F",
"7 c #FFAB0F",
"8 c #FFAB10",
"9 c #D38B52",
"0 c #D38C52",
"q c #D48C52",
"w c #6F7BA2",
"e c #707CA2",
"r c #707CA3",
"t c #7C8383",
"y c #74BF8F",
"u c #939393",
"i c #A2AAAF",
"p c #A3ABAF",
"a c #EBB385",
"s c #FEDF90",
"d c #FFDF90",
"f c #FFE090",
"g c #FFE091",
"h c #FED8AC",
"j c #FFD9AD",
"k c #A2AAC6",
"l c #A3ABC7",
"z c #D2D2D2",
"x c #D2D3D2",
"c c #DAE5FE",
"v c None",
/* pixels */
"vvvvvvvvvv$$$<<<$$$$<<22<$vvvv",
"vvvvvvvv$$<27772<<$<8gf6$vvvvv",
"vvvvvv$$222<27771$<2f71$<<vvvv",
"vvvvv$<22772<27<<$<271$222<$vv",
"vvvv$<<<<<2227772<<<<28ggf71$v",
"vvv$$$<<2222777272<722772<$$vv",
"vvvv$<<22<$77227728f7<21$$vvvv",
"vvv$<<2<<$272<771$28d2<7<$vvvv",
"vvv$<<<$$<2<$277, $28d<76$vvvv",
"vv$<<<$$$22$<271$&.<8s$27<$vvv",
"vv$<<O<$<2<O<22<$&&$<6$<71$vvv",
"vv$<O$<$<2$O22<%u  &$, $<6$vvv",
"vvvOvO<$<$a$2<$qz Xq0$  $1$vvv",
"vvvvvO$<$Oa$2<$ax*=aq9 v.<vvvv",
"vvvvvvO<<$OO<$qax34jjh vv$vvvv",
"vvvvvvO$<<$O<$ajjjjjjh vv vvvv",
"vvvvvvv $$++&ajjjjjjj9 vvvvvvv",
"vvvvvvvv -555--qjjja9 vvvvvvvv",
"vvvvvvv --++-55-+&&  vvvvvvvvv",
"vvvvvvv -+---++55-+-vvvvvvvvvv",
"vvvvvvvv+-5y5-t@@@>+vvvvvvvvvv",
"vvvvvvvv+-5yy5+>rte vvvvvvvvvv",
"vvvvvvv +-y5-+ @@@> vvvvvvvvvv",
"vvvvvvv  ---q>r>lk@ vvvvvvvvvv",
"vvvvvvv ++ qa>lrlc@ vvvvvvvvvv",
"vvvvvvv +>+ q@r@re@ vvvvvvvvvv",
"vvvvvvv >rr>  >>@ > vvvvvvvvvv",
"vvvvvvv rrrr>@  ope vvvvvvvvvv",
"vvvvvvv :pp:r:preiw vvvvvvvvvv",
"vvvvvvv :t:#     ::; vvvvvvvvv"
};
