/* XPM */
static char *result[] = {
/* columns rows colors chars-per-pixel */
"30 30 56 1 ",
"  c black",
". c #010101",
"X c gray8",
"o c #183828",
"O c #193828",
"+ c #193829",
"@ c #212938",
"# c #303430",
"$ c #313531",
"% c #570F05",
"& c #580F05",
"* c #571006",
"= c #573600",
"- c #583601",
"; c #753E2D",
": c #753E2E",
"> c #386B29",
", c #286444",
"< c #504C4C",
"1 c #514D4D",
"2 c #44506B",
"3 c #45516C",
"4 c #922400",
"5 c #932400",
"6 c #D23C38",
"7 c #D33C38",
"8 c #94520A",
"9 c #D47312",
"0 c #FE645C",
"q c #FF645C",
"w c #50A354",
"e c #598A7A",
"r c #FFAB0F",
"t c #D38B52",
"y c #D38C52",
"u c #D48C52",
"i c #707CA2",
"p c #707CA3",
"a c #7C8282",
"s c #7C8383",
"d c #74BF8F",
"f c gray58",
"g c #A2AAAE",
"h c #A3ABAF",
"j c #EAB284",
"k c #EBB385",
"l c #FFE090",
"z c #FFE091",
"x c #FED8AC",
"c c #FFD9AD",
"v c #A2AAC6",
"b c #A3ABC7",
"n c LightGray",
"m c #DAE5EA",
"M c #DBE6FF",
"N c None",
/* pixels */
"NNNN=89988====888===NNNNNNNNNN",
"NNNNN=rzzr8=889rrr98==NNNNNNNN",
"NNNNNN=9rz98=9rrr98999==NNNNNN",
"NNNN889=9r98=88r989rr998=NNNNN",
"NN=8rzzz988889rrr99988888=NNNN",
"N=8zzrrr99r89r9rrr999988===NNN",
"NN====998rzr9rr99rr=89988=NNNN",
"NNNN=8r89zr9=9rr89r9=88988=NNN",
"NNNN=rr8zr9= 8rr9=898==888=NNN",
"NNN=8r9=lr8 ;=9r98=99===888=NN",
"NNN=9r8=r8=;;=8998X898=8X88=NN",
"NNN=r8= 8=;  f=899X=98=8=X8=NN",
"NNN=9=  =uu  nu=89=k=8=8XNXNNN",
"NNNN8 N uuk>>nk=89=kX=8=XNNNNN",
"NNNN=NN cccwwnku=8XX=88XNNNNNN",
"NNNN NN ccccccck-8X=88=XNNNNNN",
"NNNNNNN tccccccxj;Oo==XNNNNNNN",
"NNNNNNNN tjxxxy;%7655%NNNNNNNN",
"NNNNNNNNN  ;;oo%75%%%5%NNNNNNN",
"NNNNNNNNNN,o,e,%7&5765%NNNNNNN",
"NNNNNNNNNNo2@@@*0q75%%%NNNNNNN",
"NNNNNNNNNN psp2h%44,e, NNNNNNN",
"NNNNNNNNN  2hp2h2.oedeoNNNNNNN",
"NNNNNNNN 2 2s223+b:,eeoNNNNNNN",
"NNNNNNNN 2 $##@Mbpb2e, NNNNNNN",
"NNNNNNNNN  mgs@bb2v2o  NNNNNNN",
"NNNNNNNNNN 2###pi2@  2 NNNNNNN",
"NNNNNNNNNN phpp2   @22 NNNNNNN",
"NNNNNNNNNN phpia<22@@@<NNNNNNN",
"NNNNNNNNN #1s<     <<< NNNNNNN"
};
