/* XPM */
static char *_c43eedae41848d2990401f32cd6a509URZu10UJQzkLTegv[] = {
/* columns rows colors chars-per-pixel */
"30 30 108 2 ",
"   c #1F4A00",
".  c #214D00",
"X  c #255300",
"o  c #295400",
"O  c #2D5A00",
"+  c #325D00",
"@  c #356300",
"#  c #3A6600",
"$  c #366800",
"%  c #3D6B00",
"&  c #3F680A",
"*  c #3F7100",
"=  c #416E00",
"-  c #436C0A",
";  c #447301",
":  c #497603",
">  c #477803",
",  c #4B7A04",
"<  c #47740B",
"1  c #4B760B",
"2  c #4D7B0A",
"3  c #527E04",
"4  c #527E0C",
"5  c #477012",
"6  c #4D7713",
"7  c #4D7A12",
"8  c #537E12",
"9  c #517B19",
"0  c #4E8009",
"q  c #558205",
"w  c #588507",
"e  c #54820C",
"r  c #59860B",
"t  c #56890B",
"y  c #5B8A0C",
"u  c #558412",
"i  c #598513",
"p  c #578A13",
"a  c #5A8A14",
"s  c #5B8A14",
"d  c #5C8914",
"f  c #5C8B17",
"g  c #5C8C16",
"h  c #5D8D17",
"j  c #57861E",
"k  c #598418",
"l  c #5B8718",
"z  c #5C871C",
"x  c #5A8919",
"c  c #5D8B1A",
"v  c #5E8D19",
"b  c #5F8B1C",
"n  c #5E8D1D",
"m  c #5F911A",
"M  c #608F0F",
"N  c #608C10",
"B  c #618C16",
"V  c #628F1A",
"C  c #628E1B",
"Z  c #638F1E",
"A  c #629013",
"S  c #639116",
"D  c #61911B",
"F  c #64941A",
"G  c #62911F",
"H  c #64901D",
"J  c #689619",
"K  c #66981F",
"L  c #6A981B",
"P  c #6C9B1C",
"I  c #5B8523",
"U  c #5F8923",
"Y  c #5F8C23",
"T  c #628D20",
"R  c #669620",
"E  c #659024",
"W  c #669125",
"Q  c #689723",
"!  c #6A9A20",
"~  c #6B9B23",
"^  c #6B9F21",
"/  c #6B9B25",
"(  c #6C9924",
")  c #6C9B27",
"_  c #699428",
"`  c #6D9B29",
"'  c #6F9A2E",
"]  c #739D21",
"[  c #779F24",
"{  c #719F2A",
"}  c #719D2C",
"|  c #679030",
" . c #689131",
".. c #6F9935",
"X. c #749F36",
"o. c #70A026",
"O. c #75A327",
"+. c #75A22B",
"@. c #75A22D",
"#. c #7AA82E",
"$. c #7CA82C",
"%. c #7FAC2D",
"&. c #71A030",
"*. c #76A331",
"=. c #77A632",
"-. c #7AA730",
";. c #7EAB34",
":. c #7FAE39",
/* pixels */
"X o + O @ Y 1 < % % % 7 < j < # N $., q ] [ 3 w q , ; F t ! ",
"2 4 O % a % G v , 2 f e ; % @ a ; ; r M r , q %.J % O., p a ",
"e e 2 e X , ; o ; F 2 ; ; t , q ; r ; L y y , y A % e , # ` ",
"% , D e X / t @ @ h D ! , t e ; 4 +.3 B ; N y , % 4 @ # o = ",
"= a f # ; h h D D h , t a h ; H i u e V , t 4 , # ) u 2 @ . ",
"; a , ; u ; u i ! h e ; t 2 ; 4 i k i 2 @ : e % ; b E E # # ",
"% ; % G , 2 2 2 e ; h e u , G u 1 = # i = 4 + ; ; k @ 8 8 z ",
": ; ; n % , @ 2 a % @ # G R ) 4 4 % ; 2 # 4 : V 2 4 + : ' k ",
": 1 ; % u e @ % = # ; t , ; u } f . u : : 4 c u c o i 4 c # ",
"= . % % u O u 4 % % u u ; e a ) f . Q i i ; = e @ @ % , Q # ",
"u x &.n @ # 2 2 # Q =.e e , @ % e ; e Q ) e V e , ; r p ; , ",
"2 e Q % ; 2 G f u 2 p t ; ; 2 e S ; @ { V = ; = % B S H , , ",
"u ) n # { # ; , / , % p p ; @ : f ; : *.= ; V # : : y F r K ",
"e :.; : e o # :.; t , ; e # ; e ; ; u Q ; O @ V % , % : #.e ",
"u ; @ ; @ # p e p # ^ F o , # . . k 2 + # + k 8 1 # ; : f e ",
"p @ u p t , e ; e ! O @ L , p u 8 k = @ < 6 < + = 8 # ; i # ",
"@ : , G K h > 2 ; 2 K e e o.4 i X.% < I # ..-   E c o % = ; ",
"1 1 1 2 *.u u ` ; > # / H ^ V _ z - | 5 & @ < % f B ) % b O ",
"= 8 # 2 u $ * * % , , = *.e 2 @ % 9 - -  .U 4 f : y P f % o ",
". k % u u x @ ; $ v @ X 4 = @ 4 O % - 6 o % 4 a @ ; w a + + ",
"Q *.@ u , % O ; @ ; ; . p i B V 4 O # 1 . c , e 3 , , , , : ",
"2 i ; # ; m u u ; p ; ; % B % t e . @ 1 : ` = y P P y q q i ",
"4 @ % v , $ > * p % R = K H : 3 @ @ i 4 = @ ; q w P M A @ t ",
"= # , t 0 , @ R F K K H r B 3 ; = f Q 4 2 % e ; : q r S ; B ",
"e i @ @ ; m p e % m F { : ; 4 V 4 : V f : , : , V , p D ;.-.",
": , p 2 $ , 0 p , , % @., i Z c 4 E 4 ` V i = ; u ` V % @ f ",
"Q 4 ; @ @ * ! , 0 ; 2 ; , . % # % V c ` c 4 = = k T 1 ; + : ",
"# 2 e h e m O , 0 @ o ; + f Z 8 1 1 @ : f 4 % E o % 2 < : h ",
"e % K G h ; e e > u @ , 4 : c z + X @ = % o O 1 o - 6 k : ; ",
"f f a ` $ 2 / f Q u e T ; 8 @ _ i : @ @ , e V = O 1 8 k = % "
};
