/* XPM */
static char *_98178b377b846b4f03824f9ce4d0faexlBUMjCUju7LOECm[] = {
/* columns rows colors chars-per-pixel */
"30 30 76 1 ",
"  c #0C0B0A",
". c #100F0E",
"X c #161412",
"o c #1A1714",
"O c #1D1917",
"+ c #1D1A19",
"@ c #221D1A",
"# c #25211E",
"$ c #29231E",
"% c #2C2622",
"& c #2F2924",
"* c #332B26",
"= c #352E29",
"- c #382F2A",
"; c #37302C",
": c #3B322C",
"> c #3E3631",
", c #413730",
"< c #443A33",
"1 c #4A3E37",
"2 c #4A3F38",
"3 c #4D423B",
"4 c #51453D",
"5 c #534740",
"6 c #564A42",
"7 c #574C44",
"8 c #584B43",
"9 c #584C44",
"0 c #594C44",
"q c #5A4D44",
"w c #584E47",
"e c #5C4F47",
"r c #5B4F48",
"t c #5E5148",
"y c #5F524A",
"u c #60524A",
"i c #62544C",
"p c #62554C",
"a c #62554D",
"s c #63554D",
"d c #63564E",
"f c #64574F",
"g c #65584E",
"h c #665850",
"j c #675A50",
"k c #665A51",
"l c #685B51",
"z c #695C52",
"x c #695C53",
"c c #6B5D54",
"v c #6B5E54",
"b c #6B5E55",
"n c #6C5D54",
"m c #6D5E55",
"M c #6E5F56",
"N c #6F6057",
"B c #6F6157",
"V c #6F6158",
"C c #716258",
"Z c #72645A",
"A c #73645A",
"S c #73655B",
"D c #75665C",
"F c #76685D",
"G c #77685D",
"H c #786A5F",
"J c #796B5F",
"K c #796B60",
"L c #7B6D61",
"P c #7C6E62",
"I c #7D6F63",
"U c #7E7063",
"Y c #7E7064",
"T c #7F7164",
"R c #7F7165",
"E c #807265",
/* pixels */
"TTUTTLCNz%vLTKVNMCa5MVDa8ucCLL",
"lvvzgNNNN;tULy6hMM3vVM82224aMC",
"12311gNMC,1Ny222r26Mv52211116M",
"121114eei%wy1122a@yy422,$%<116",
"11111111=@w21111y&:222>=h4%111",
"11111111o,3121113=+>:<5vMM%=11",
"111111,@*1111111>@ >dVVMl8:@11",
";<<-=-Oo1111<:::+%odMvd62,oO<<",
"757dvh+X,1<**5r3*%+22<>%o@OO@O",
"VVIILv+%@-=uAANVh#+%%%&<wlgzza",
"MDTTTD@%O@AETLVVv*-5avVKHCNu34",
"VVLTTV%@ogEEETDMa>vMvVLTEUz111",
"MVVCNM@XaTTPTFCz<gMVAEEPEEg111",
"Ma6321@&MKCCCVM23MVMLEEEUEa314",
"622211X=vMMVMvv*<MCCHPHHPKMlgM",
"111222@:ah7333<X<4688alMMzMMNN",
"21111=O<431111;X<111114343gNNN",
"112>O@<111111<@X;1111111118z84",
"1<*O%O,111111$@oo==<1111111111",
":=a3X.@1111<$.O,<<:O,111111111",
"3vVVw+.;1,$#-8NHEAC3%11111=*,1",
"MMVVz3X.%@:1sGLEEANu@:111$O@X@",
"VMFTTA5 %11uDEEEEAN8<$**@O13<-",
"DLTTTAM%118CGEEEEHM311$XO=388i",
"TTTTELV%<2yMCEEEHNl111<% =sDUP",
"TTEEPCC:=2wMNHHANNe3311u$1cHEE",
"TLIDMa4=%1484unCMC446wa<1CNNCl",
"CVa7422:@111118CMMMCVMy%zNNNy3",
"74111111o:11118CCMMCh4&lFPDVw1",
"22221112:@11114CCMMa3$<LUUCV41"
};
